#!OML:ASF F:\VICON\USERDATA\INSTALL\Justin_Nancy\Justin_Nancy.ASF
:FULLY-SPECIFIED
:DEGREES
251
root -20.5011 16.9767 8.11706 116.027 -83.6149 -114.523
lowerback 6.15581 3.77245 2.07155
upperback -0.261223 5.27162 4.39693
thorax -3.94905 2.58746 2.89286
lowerneck -13.6715 -4.72588 -7.22325
upperneck 23.6637 -5.97213 2.86283
head 10.1026 -3.20532 1.42772
rclavicle -2.88238e-015 3.18055e-015
rhumerus -21.9638 -5.24997 -75.5463
rradius 39.3931
rwrist 3.47222
rhand -14.0656 18.0247
rfingers 7.12502
rthumb 12.0658 -11.6075
lclavicle -2.88238e-015 3.18055e-015
lhumerus -39.6462 16.4806 81.7176
lradius 19.0208
lwrist -13.4596
lhand -17.6784 24.3455
lfingers 7.12502
lthumb 8.58067 54.1511
rfemur 14.4017 10.8328 32.888
rtibia 13.8651
rfoot -17.4074 -9.11323
rtoes 8.14725
lfemur -35.139 3.37149 -11.3237
ltibia 22.2
lfoot -10.0663 10.3227
ltoes -21.1657
252
root -20.7238 16.9851 8.18505 113.097 -83.7521 -111.609
lowerback 6.24959 3.60228 2.37992
upperback -0.368755 5.07502 4.36731
thorax -4.07621 2.4812 2.70122
lowerneck -13.7613 -4.66116 -7.38248
upperneck 24.0139 -5.85527 2.85153
head 10.2452 -3.17331 1.46191
rclavicle -2.43014e-014 -7.15625e-015
rhumerus -21.7849 -4.23584 -75.9461
rradius 40.1596
rwrist 0.589916
rhand -15.7723 15.218
rfingers 7.12502
rthumb 10.4198 -14.5038
lclavicle -2.43014e-014 -7.15625e-015
lhumerus -39.854 16.6328 81.5347
lradius 18.8249
lwrist -14.2604
lhand -17.4839 24.9094
lfingers 7.12502
lthumb 8.76837 54.7073
rfemur 14.7508 10.4543 32.6414
rtibia 14.6488
rfoot -17.4072 -8.64381
rtoes 7.09006
lfemur -34.1906 -5.75916 -6.75882
ltibia 22.2337
lfoot -15.4011 14.2136
ltoes 14.2109
253
root -20.956 16.9599 8.24452 113.203 -83.8022 -111.916
lowerback 6.4372 3.59755 2.59041
upperback -0.372134 5.09162 4.28751
thorax -4.15995 2.48277 2.48825
lowerneck -14.0813 -4.71 -7.50872
upperneck 24.5437 -5.91871 2.92768
head 10.5108 -3.21034 1.49151
rclavicle -7.06679e-014 -3.33958e-014
rhumerus -21.5734 -4.09828 -76.1684
rradius 40.5612
rwrist -0.779977
rhand -16.3118 14.513
rfingers 7.12502
rthumb 9.89935 -15.2342
lclavicle -7.06679e-014 -3.33958e-014
lhumerus -39.8644 15.9706 81.8581
lradius 18.6883
lwrist -13.8491
lhand -17.8796 25.2628
lfingers 7.12502
lthumb 8.38657 55.0763
rfemur 15.2465 10.6476 32.5143
rtibia 15.764
rfoot -17.3787 -8.35718
rtoes 5.95074
lfemur -33.7945 -4.0555 -7.94642
ltibia 22.559
lfoot -12.7377 12.3501
ltoes 8.5673
254
root -21.1904 16.9356 8.29227 115.501 -83.6026 -114.504
lowerback 6.63169 3.76754 2.78273
upperback -0.268884 5.33358 4.14391
thorax -4.13694 2.59727 2.19928
lowerneck -14.1757 -4.77538 -7.1026
upperneck 24.5647 -6.08395 2.84551
head 10.5279 -3.25626 1.36998
rclavicle 4.17448e-015 1.59028e-015
rhumerus -21.3603 -4.88708 -76.242
rradius 40.7483
rwrist -1.05339
rhand -15.253 15.5878
rfingers 7.12502
rthumb 10.9208 -14.1082
lclavicle 4.17448e-015 1.59028e-015
lhumerus -39.654 15.6425 81.7606
lradius 18.4166
lwrist -14.0943
lhand -18.0484 25.5241
lfingers 7.12502
lthumb 8.22364 55.3441
rfemur 15.7063 11.0114 32.5906
rtibia 17.1115
rfoot -17.0594 -8.19584
rtoes 3.7511
lfemur -33.345 -1.85584 -9.02326
ltibia 23.1759
lfoot -10.6647 10.1743
ltoes 4.03023
255
root -21.4311 16.9104 8.33891 118.383 -83.5864 -117.545
lowerback 6.60041 3.83219 2.61165
upperback -0.178239 5.39989 4.08632
thorax -4.03642 2.63544 2.23249
lowerneck -14.2769 -4.6961 -7.2206
upperneck 24.6374 -6.0043 3.09853
head 10.5818 -3.2008 1.48855
rclavicle -3.14577e-014 2.38542e-015
rhumerus -21.2103 -5.25986 -76.2126
rradius 41.063
rwrist -1.234
rhand -15.2123 15.4594
rfingers 7.12502
rthumb 10.96 -14.2345
lclavicle -3.14577e-014 2.38542e-015
lhumerus -39.4919 16.0938 81.456
lradius 17.9614
lwrist -14.9465
lhand -18.0272 25.5796
lfingers 7.12502
lthumb 8.24409 55.3987
rfemur 15.8282 11.1871 32.3587
rtibia 18.7717
rfoot -16.5355 -8.1307
rtoes 0.0159433
lfemur -33.1072 0.427825 -10.4705
ltibia 24.029
lfoot -8.92535 8.49263
ltoes -2.96135
256
root -21.675 16.8837 8.38648 123.068 -83.7303 -122.355
lowerback 6.51172 3.91544 1.95632
upperback -0.165682 5.46266 4.14879
thorax -4.04288 2.68347 2.65923
lowerneck -14.2593 -4.61067 -7.32302
upperneck 24.8307 -5.86507 3.06175
head 10.6439 -3.15634 1.51136
rclavicle 9.29815e-014 6.67916e-014
rhumerus -21.1795 -5.46294 -76.0822
rradius 41.2345
rwrist -1.01699
rhand -16.11 14.7453
rfingers 7.12502
rthumb 10.0941 -14.9926
lclavicle 9.29815e-014 6.67916e-014
lhumerus -39.6092 16.9368 81.115
lradius 17.4904
lwrist -16.1168
lhand -17.6512 25.5181
lfingers 7.12502
lthumb 8.60693 55.3227
rfemur 15.9201 11.3214 31.7679
rtibia 20.3827
rfoot -15.9131 -7.61567
rtoes -1.99901
lfemur -32.7329 0.777086 -11.1533
ltibia 25.2098
lfoot -8.23258 7.86176
ltoes -0.861657
